<svg xmlns="http://www.w3.org/2000/svg" width="32" height="32" viewBox="0 0 32 32">
  <rect width="32" height="32" rx="7" fill="#1E3A5F"/>
  <path d="M9.6 22V13.2C9.6 12.4 9.9 11.8 10.5 11.3C11.1 10.8 11.8 10.6 12.7 10.6C13.6 10.6 14.3 10.8 14.9 11.3C15.5 11.8 15.8 12.4 15.8 13.2V22H14.2V17.9H11.2V22H9.6ZM11.2 16.5H14.2V13.4C14.2 13.1 14.1 12.9 13.8 12.7C13.5 12.5 13.2 12.4 12.7 12.4C12.2 12.4 11.9 12.5 11.6 12.7C11.3 12.9 11.2 13.1 11.2 13.4V16.5Z" fill="#5B9BD5"/>
  <path d="M17.4 22V10.8H22.4V12.3H19V15.6H21.7V17.1H19V22H17.4Z" fill="#FFFFFF"/>
</svg>
